<?xml version="1.0" encoding="utf-8"?>
<!-- Generator: Adobe Illustrator 26.0.0, SVG Export Plug-In . SVG Version: 6.00 Build 0)  -->
<svg version="1.1" id="Capa_1" xmlns="http://www.w3.org/2000/svg" xmlns:xlink="http://www.w3.org/1999/xlink" x="0px" y="0px"
	 viewBox="0 0 260 82.8" style="enable-background:new 0 0 260 82.8;" xml:space="preserve">
<style type="text/css">
	.st0{opacity:0.75;enable-background:new    ;}
	.st1{fill:#D7DF23;}
	.st2{fill:#F8D122;}
	.st3{enable-background:new    ;}
</style>
<g id="Logo" transform="translate(-65 -29.228)">
	<g id="Elipse_1" class="st0">
		<ellipse class="st1" cx="97.4" cy="62.5" rx="32.4" ry="33.3"/>
	</g>
	<g id="Capa_2_00000090291692132781067860000016073361218082991509_" transform="translate(210.445 47.037)">
		<g id="Layer_1" transform="translate(0 0)">
			<g id="Trazado_1">
				<path class="st1" d="M50.3,57.8L33.2,40.7c-0.4-0.4-1-0.6-1.5-0.6H21c-0.2,0-0.4,0-0.6-0.1h-6c0,4.2,0,8.4,0,12.6v7.1
					c0,0.8,0.6,1.4,1.4,1.4h33.2c1.1,0,1.9-0.9,1.9-1.9C50.8,58.6,50.6,58.1,50.3,57.8L50.3,57.8z M36,54.6H21
					c-0.4,0-0.8,0.1-0.8-0.6l0.1-6.9c0-0.7,0.6-1.3,1.4-1.3h8.2c0.5,0,0.9,0.2,1.3,0.5l5.9,6c0.5,0.5,0.5,1.4,0,1.9
					C36.8,54.5,36.4,54.7,36,54.6L36,54.6z"/>
			</g>
			<g id="Trazado_2">
				<path class="st2" d="M0,1.9v33.2c0,0.8,0.6,1.4,1.4,1.4c0,0,0,0,0,0h19.7v-6C21,30.2,21,30,21,29.8c0-3.6,0.1-7.1,0.1-10.7
					c0-0.6-0.3-1.1-0.6-1.6L3.2,0.5c-0.8-0.7-2-0.7-2.7,0C0.2,0.9,0,1.4,0,1.9z M8.7,13.8l6,5.9c0.3,0.4,0.5,0.8,0.5,1.3v8.2
					c0,0.7-0.6,1.3-1.3,1.3L7,30.7c-0.7,0-0.6-0.4-0.6-0.8V14.8c0-0.8,0.6-1.4,1.4-1.4C8.1,13.4,8.4,13.6,8.7,13.8L8.7,13.8z"/>
			</g>
		</g>
	</g>
	<g class="st3">
		<path d="M99.2,70.5c-1.4-0.6-2.6-1.4-3.5-2.4c-0.9-1-1.7-2.3-2.3-3.7c0.3-0.9,0.9-1.7,1.6-2.3c0.7-0.6,1.6-1.2,2.5-1.6
			c0.9-0.4,1.9-0.8,3-1.1c1-0.3,2.1-0.5,3-0.7c0.2,0.1,0.3,0.1,0.3,0c0-0.1,0.1,0,0.3,0.1c1.2-0.4,2.6-0.7,4.2-1.1
			c1.6-0.4,3.3-0.5,5.1-0.4c0.2-0.1,0.5-0.2,0.9-0.2c0.3,0,0.7,0,1.1,0c0.4,0,0.7,0,1.1,0c0.3,0,0.6-0.1,0.9-0.2
			c0.2,0.2,0.5,0.4,0.9,0.4s0.8,0.2,1.3,0.5c0.1,0,0.1,0,0-0.2c-0.1-0.2-0.1-0.3,0.1-0.3c0.4,0,0.8,0.1,1.2,0.3
			c0.3,0.2,0.7,0.4,0.9,0.7c0.3,0.3,0.6,0.5,0.8,0.7s0.5,0.3,0.8,0.3c0.3,0.4,0.7,0.7,1.1,1c0.4,0.3,0.8,0.7,1.2,1
			c0.4,0.3,0.7,0.7,1,1.1s0.4,0.9,0.4,1.4c0,0.2,0,0.3,0.2,0.4c0.2,0,0.3,0.1,0.4,0.3c0,1.3-0.2,2.3-0.6,3.2c-0.4,0.9-1,1.8-1.6,2.5
			c-0.6,0.8-1.3,1.5-2.1,2.2c-0.7,0.7-1.4,1.4-2,2.2c0.4,0.5,0.9,1,1.4,1.4c0.5,0.4,1.1,0.8,1.6,1.2c0.5,0.4,1.1,0.8,1.5,1.3
			c0.5,0.5,0.9,1,1.2,1.5c0.1,0.2,0.3,0.3,0.7,0.4c0.1,0.4,0.2,0.8,0.4,1.2c0.2,0.4,0.4,0.8,0.5,1.2c0.2,0.4,0.3,0.7,0.3,1
			c0,0.3-0.1,0.6-0.3,0.8c0.2,0.1,0.4,0.3,0.4,0.6c0,0.3,0,0.5,0,0.7c-0.7,0.9-1.3,1.6-1.5,1.9c-0.3,0.4-0.5,0.6-0.6,0.8
			c-0.1,0.2-0.3,0.3-0.4,0.5c-0.1,0.1-0.4,0.4-0.9,0.8c-1.8,1.1-3.7,2.1-5.6,2.9c-1.9,0.9-4,1.4-6.1,1.8c-0.2,0.2-0.4,0.4-0.7,0.6
			c-0.3,0.2-0.7,0.3-1.1,0.4s-0.8,0.2-1.3,0.3c-0.5,0.1-0.9,0.1-1.2,0.2c-0.2-0.1-0.3-0.2-0.3-0.3c0-0.2-0.1-0.3-0.3-0.3
			c0,0.4-0.2,0.6-0.5,0.6c-0.3,0-0.7-0.1-1.2-0.2c-0.5-0.2-1-0.4-1.5-0.7s-0.9-0.6-1.3-0.9c-0.2,0.3-0.4,0.6-0.6,1s-0.5,0.6-0.8,0.7
			c-0.5-0.1-0.8-0.1-1-0.2c-0.2,0-0.4,0.1-0.6,0.3c-0.3-0.1-0.5-0.3-0.6-0.4c-0.1-0.2-0.3-0.3-0.4-0.5c-0.1-0.2-0.3-0.3-0.5-0.4
			c-0.2-0.1-0.4-0.2-0.8-0.3c0.1-0.2,0-0.4-0.2-0.8c-0.2-0.4-0.4-0.6-0.7-0.6c0.2-0.3,0.1-0.6-0.2-1c-0.3-0.4-0.5-0.9-0.7-1.4
			c0-0.2,0.1-0.5,0.1-0.7c0-0.3,0.1-0.5,0.1-0.7c0.1-0.2,0.1-0.4,0.2-0.6c0.1-0.2,0.3-0.3,0.5-0.4c0-0.4-0.2-0.9-0.4-1.3
			c0.3-0.2,0.5-0.5,0.6-0.9s0.2-0.7,0.3-1.1c0.1-0.4,0.2-0.7,0.3-1.1c0.1-0.4,0.4-0.7,0.7-0.9c-0.1-0.1-0.1-0.2-0.2-0.3
			c-0.1-0.1-0.1-0.2-0.1-0.4c0.5-0.8,0.9-1.6,1.1-2.2c0.2-0.6,0.4-1.2,0.5-1.7c0.1-0.6,0.2-1.2,0.4-1.8c0.1-0.6,0.4-1.5,0.8-2.4
			c0-0.6,0-1.2,0.2-1.6c0.2-0.5,0.3-0.9,0.5-1.4c0.2-0.5,0.3-0.9,0.4-1.4s0.1-1.1-0.1-1.8c-0.6,0.1-1,0.3-1.2,0.6
			c-0.3,0.3-0.4,0.8-0.5,1.4c-0.3,0.3-0.7,0.4-1.2,0.4C100,70.3,99.6,70.3,99.2,70.5z M118,64.4c-2.1-0.1-4.2,0.1-6.2,0.6
			c-2,0.4-3.7,1.1-5.1,1.9c0.7,0.6,1.4,1.1,2.1,1.5c0.7,0.4,1.3,1,1.7,1.8c1.6-0.6,3-1.5,4.3-2.5C115.9,66.7,117,65.6,118,64.4z
			 M121.6,80.3c-1.3-0.7-2.5-1.1-3.5-1.3c-1.1-0.1-2.1-0.1-3,0s-1.9,0.4-2.8,0.6c-0.9,0.3-1.8,0.5-2.6,0.6c-0.4,1.2-0.9,2.4-1.4,3.8
			c-0.5,1.4-0.9,2.7-1.4,4.1c1.2-0.2,2.3-0.4,3.4-0.8c1-0.3,2-0.7,2.9-1.1c0.9-0.4,1.9-0.8,2.8-1.3c0.9-0.4,1.9-0.8,2.8-1.2
			c0.1-0.4,0.3-0.7,0.7-1c0.3-0.2,0.7-0.5,1-0.7c0.3-0.2,0.6-0.5,0.9-0.7C121.5,81.1,121.6,80.7,121.6,80.3z"/>
		<path d="M162.9,79.8c0,0.4,0,0.8,0.1,1.2c0.1,0.4,0.2,0.7,0.4,1.1s0.3,0.7,0.4,1.1c0.1,0.4,0.2,0.7,0.3,1.1c0.1,0.5,0.1,1,0,1.5
			c-0.1,0.6-0.2,1.1-0.4,1.6c-0.2,0.5-0.4,1-0.7,1.4c-0.3,0.4-0.6,0.7-1,0.9c-0.5,0.6-1,1.1-1.7,1.4c-0.7,0.3-1.3,0.7-1.9,1.2
			c-0.4,0.2-0.8,0.4-1.2,0.5s-0.9,0.2-1.4,0.3c-0.4,0.2-0.8,0.4-1.3,0.6c-0.5,0.2-1,0.4-1.6,0.6c-0.5,0.2-1.1,0.3-1.6,0.4
			c-0.5,0.1-1,0.1-1.4,0.1c-1,0.4-2,0.6-3,0.7c-1,0.1-2.1,0-3.4-0.2c-1.2,0.2-2.3,0.1-3.4-0.2c-1-0.3-1.9-0.7-2.7-1.3
			c-0.8-0.6-1.5-1.3-2.1-2.1c-0.6-0.8-1.1-1.7-1.4-2.6c-0.3-1.9-0.2-3.7,0.2-5.3s1-3,1.8-4.4c0.8-1.3,1.6-2.6,2.6-3.7
			c1-1.1,1.9-2.2,2.8-3.3c0.2,0.1,0.4,0.1,0.5,0c0.1-0.1,0.2-0.2,0.3-0.4s0.2-0.3,0.3-0.4c0.1-0.1,0.3-0.2,0.4-0.3
			c0.2-0.5,0.6-0.9,1-1.1s0.8-0.6,1.1-1.1c0.3-0.1,0.6-0.2,0.8-0.3c0.2-0.1,0.4-0.3,0.6-0.5c0.2-0.2,0.4-0.3,0.6-0.5
			s0.4-0.3,0.7-0.3v-0.6c0.6-0.3,1.1-0.6,1.3-0.9c0.3-0.4,0.6-0.8,1-1.3c0.3,0,0.5-0.1,0.7-0.1c0.2,0,0.5,0,0.8-0.1
			c0.3-0.5,0.5-0.8,0.7-1.1c0.2-0.2,0.5-0.5,1-0.8c0.4,0.2,0.9,0.3,1.3,0.4c0.5,0.1,0.9,0.3,1.3,0.7c0,0.3,0.1,0.6,0.3,0.8
			c0.2,0.2,0.4,0.4,0.6,0.5s0.4,0.3,0.6,0.5c0.2,0.2,0.3,0.4,0.4,0.7c0.1,0,0.2,0,0.3-0.1c0.1-0.1,0.1-0.1,0.3-0.1
			c0.1,0.5,0.2,0.8,0.4,0.9c0.1,0.2,0.3,0.4,0.4,0.9c-0.2,0.3-0.3,0.7-0.4,1c-0.1,0.4-0.3,0.6-0.6,0.8c0,0.2,0,0.4,0.2,0.4
			c0.2,0,0.3,0.1,0.3,0.3c0,0.3,0,0.5-0.2,0.7c0.8,1.3,1.5,2.7,2.2,4.2C161.4,77,162.1,78.4,162.9,79.8z M156.6,84.6
			c0.1-0.4,0.3-0.7,0.5-0.9c0.2-0.2,0.3-0.6,0.4-1.1c-0.2-0.3-0.3-0.5-0.3-0.6c0-0.2-0.1-0.4-0.1-0.7c-0.7-1-1.4-2.2-1.9-3.4
			c-0.5-1.2-1.2-2.3-1.8-3.4c-0.1,0.1-0.2,0.3-0.4,0.4c-0.2,0.1-0.4,0.1-0.6-0.1c-0.1,0.3-0.2,0.5-0.4,0.6c-0.2,0.1-0.4,0.2-0.6,0.2
			c-0.2,0-0.4-0.1-0.6-0.2c-0.2-0.1-0.4-0.2-0.6-0.3c-1,0.8-2,1.5-2.9,2.3c-1,0.7-1.9,1.6-2.6,2.6c-0.1,0.1-0.2,0.1-0.3,0.1
			c0,0-0.1,0-0.3,0.1c-0.3,0.6-0.6,1.2-1,1.8c-0.4,0.5-0.8,1.1-1.1,1.6c-0.4,0.5-0.7,1.1-1,1.7c-0.3,0.6-0.4,1.3-0.5,2.1
			c0.6,0.5,1.3,0.8,2,0.9c0.8,0.1,1.6,0.1,2.4,0.1c0.8-0.1,1.6-0.2,2.4-0.3c0.8-0.2,1.5-0.2,2.2-0.2c1.4-0.3,2.6-0.8,3.7-1.3
			S155.4,85.2,156.6,84.6z"/>
		<path d="M197.2,95.7c-1.2-0.5-2.1-1.3-2.8-2.4c-0.7-1-1.4-2.2-2.1-3.5c-0.1-0.2-0.2-0.4-0.3-0.6s-0.2-0.4-0.3-0.6l-0.7-1.3
			l-0.4-0.8L190,87l-0.9,0.8l-0.5,0.5c-0.9,0.8-1.8,1.6-2.7,2.4c-0.9,0.8-1.8,1.5-2.8,2.1c-1,0.6-2,1.1-3.1,1.5
			c-1.1,0.4-2.3,0.6-3.6,0.6l-1.1-0.6c-0.6-0.3-1.2-0.6-1.6-0.9c-0.4-0.3-0.9-0.7-1.5-1.3c-0.2-0.3-0.3-0.6-0.4-0.9
			c-0.1-0.3-0.2-0.5-0.4-0.8c-0.4-0.7-0.7-1.3-0.9-1.8c-0.2-0.5-0.5-1.2-0.7-1.8c0.1-0.5,0.3-1.3,0.5-2.4c0.2-1.1,0.4-2.4,0.7-3.7
			c0.3-1.4,0.6-2.7,0.9-4.1c0.3-1.4,0.7-2.6,1-3.6c0.3-0.9,0.7-1.8,1-2.8c0.4-1,0.8-1.9,1.3-2.7c0.5-0.8,1-1.5,1.5-2.1
			c0.5-0.6,1.1-0.9,1.7-1c0.2,0.2,0.4,0.4,0.6,0.5s0.4,0.2,0.6,0.3c0.5,0.7,0.9,1.3,1.4,1.7c0.5,0.5,1,0.9,1.6,1.4
			c-0.2,0.8-0.4,1.8-0.7,2.8c-0.3,1-0.7,2.1-1,3.1c-0.4,1-0.7,2-1,3c-0.3,1-0.6,1.8-0.8,2.5c-0.2,0.6-0.4,1.2-0.5,1.9
			c-0.3,1.3-0.6,3-0.9,5.1c0.4-0.1,0.8-0.3,1.3-0.7c0.5-0.3,0.9-0.7,1.4-1.1c0.5-0.4,1-0.9,1.5-1.4c0.6-0.6,1.2-1.2,1.6-1.8
			c0.4-0.5,0.9-1.1,1.2-1.7c0.4-0.6,0.8-1.2,1.2-1.9c0.4-0.7,0.9-1.5,1.5-2.5c0.5-0.8,1-1.7,1.6-2.6c0.6-0.9,1.1-1.8,1.7-2.7
			s1.1-1.7,1.7-2.4c0.5-0.7,1-1.3,1.5-1.7c0.3,0.3,0.6,0.7,1,1c0.4,0.3,0.9,0.5,1.3,0.7c0.2,0.3,0.4,0.6,0.6,0.8
			c0.2,0.3,0.4,0.5,0.5,0.7c0.2,0.3,0.4,0.6,0.6,0.9c0.2,0.3,0.4,0.5,0.5,0.8c0,0.2-0.1,0.5-0.2,0.9c-0.1,0.4-0.1,0.8-0.2,1.2
			c-0.1,0.4-0.2,0.9-0.3,1.3s-0.2,0.9-0.3,1.3c-0.3,1.3-0.5,2.3-0.6,2.9c-0.1,0.6-0.2,1.2-0.3,1.5c-0.1,0.4-0.1,0.7-0.1,0.9
			c0,0.3,0,0.6,0,1c0,0.3,0,0.7,0.1,1c0,0.3,0.1,0.6,0.2,1c0.1,0.3,0.2,0.6,0.4,0.9l2-1.6c0.6-0.4,1.1-1,1.7-1.8
			c0.5-0.8,1-1.6,1.5-2.6c0.5-1,1-2.1,1.4-3.3c0.5-1.2,0.9-2.4,1.4-3.6c0.7-1.8,1.4-3.5,2.2-5.2c0.7-1.7,1.4-3,2.1-3.9
			c0.7,0.5,1.4,1,2,1.4c0.6,0.5,1,1,1.4,1.6c0.4,0.6,0.7,1.2,1,2c0.3,0.7,0.4,1.6,0.5,2.6c-0.6,1.2-1.2,2.4-1.8,3.7
			c-0.6,1.3-1.1,2.5-1.6,3.8c-0.7,1.6-1.4,3.2-2.1,4.9c-0.7,1.6-1.5,3.2-2.4,4.6c-0.9,1.5-1.9,2.8-2.9,4.1c-1.1,1.2-2.3,2.3-3.8,3.1
			c-0.4-0.1-0.7-0.2-1-0.2C198,95.2,197.6,95.4,197.2,95.7z"/>
		<path d="M227.5,94.4c-0.9,0.3-2,0.6-3.1,0.9s-2.2,0.5-3.4,0.5c-1.7,0-3-0.4-4-1.3c-0.2-0.4-0.3-0.6-0.5-0.8
			c-0.1-0.1-0.2-0.3-0.3-0.4c-0.1-0.2-0.1-0.4-0.2-0.6c-0.4-0.5-0.7-1-1-1.7c-0.2-0.6-0.4-1.3-0.5-1.9c-0.1-0.7-0.1-1.3-0.1-2
			c0.1-0.7,0.2-1.3,0.3-1.9c0.1-0.1,0.1-0.3,0.1-0.4c0-0.1,0-0.3,0.1-0.5c0.1-0.5,0.3-1.1,0.4-1.6s0.4-0.9,0.6-1.3
			c-0.1-0.3-0.1-0.6,0-1c0.1-0.4,0.3-0.7,0.5-1c0.5-1.3,0.9-2.4,1.2-3.3c0.3-0.9,0.7-1.8,1-2.7c0.6-1.5,1.1-3,1.6-4.5
			c0.5-1.5,1-3.1,1.4-4.8c0.3-0.2,0.5-0.3,0.6-0.4c0.2-0.1,0.4-0.1,0.5-0.2c0.6,0.3,1.3,0.6,2.1,0.9c0.8,0.3,1.5,0.4,2,0.4
			c0.3,0.2,0.4,0.3,0.5,0.4c0.1,0.1,0.1,0.2,0.2,0.2c0.4,0.4,0.7,0.9,1,1.3c0.3,0.5,0.4,1.1,0.3,1.8c-0.2,0.3-0.4,0.5-0.5,0.5
			c-0.2,0.7-0.3,1.3-0.5,1.7c-0.2,0.5-0.4,0.9-0.6,1.4c-0.2,0.5-0.5,1-0.7,1.5s-0.4,1.1-0.5,1.9c-0.1,0.2-0.2,0.3-0.3,0.5
			c-0.1,0.1-0.1,0.3-0.2,0.5c-0.1,0.2-0.1,0.3-0.2,0.5c-0.1,0.2-0.2,0.3-0.4,0.5c-0.1,0.9-0.3,1.6-0.5,2.1c-0.2,0.5-0.4,1.1-0.7,1.6
			c-0.4,1-0.8,2-1.1,2.9c-0.3,1-0.5,2.1-0.6,3.4c0.2-0.1,0.3-0.1,0.5-0.1s0.3,0,0.4,0c0.3,0,0.7,0.1,1.1,0.2c1-0.5,2.1-0.9,3.3-1
			c1.2-0.1,2.4-0.2,3.6-0.2c0.5,0,0.9,0,1.4,0c0.5,0,0.9,0,1.3-0.1c0.3,0.2,0.5,0.3,0.6,0.3c0.1,0,0.2,0,0.4,0c0.2,0,0.4,0,0.6,0.1
			c0.4,0.4,0.8,0.6,1.2,0.8c0.4,0.2,0.8,0.3,1.2,0.5c0.4,0.1,0.7,0.3,1.1,0.4s0.7,0.4,1,0.6l0.4,2.2c0.2,0.3,0.3,0.5,0.3,0.6
			c0,0.3-0.1,0.5-0.2,0.6l0.1,0.6c-0.5,0.1-0.9,0.2-1,0.4c-0.2,0.1-0.4,0.3-0.5,0.5c-0.3,0-0.5,0.1-0.6,0.1c-0.1,0-0.2,0-0.3,0
			c-0.5,0-1,0.1-1.7,0.3c-0.9-0.3-1.9-0.5-2.8-0.5c-0.4,0-0.8,0-1.2,0.1c-0.4,0-0.8,0.1-1.2,0.1c-0.4,0.1-0.8,0.1-1.2,0.2
			c-0.4,0-0.9,0.1-1.3,0.1L227.5,94.4z"/>
		<path d="M259.1,81.7c-0.2,0.2-0.4,0.4-0.6,0.7c-0.2,0.3-0.3,0.6-0.5,0.9c-0.2,0.4-0.4,0.7-0.6,1.1c-0.2,0.3-0.5,0.6-0.8,0.9
			c-0.2,0.5-0.3,0.9-0.5,1.2c-0.2,0.3-0.4,0.6-0.8,1c-0.3,1.4-1.1,2.8-2.4,4.4c0,0.3-0.1,0.6-0.3,0.9c-0.2,0.3-0.3,0.6-0.5,0.8
			c-0.1,0.1-0.1,0.2-0.2,0.3c-0.1,0.1-0.1,0.2-0.2,0.3l-0.1,0.5c-0.2,0.3-0.4,0.5-0.6,0.7s-0.4,0.4-0.6,0.6
			c-0.1,0.1-0.2,0.2-0.4,0.4l-0.8,0.3c-2.5-0.3-4-1.7-4.5-4l0.1-0.5c0.1-0.2,0.1-0.3,0.2-0.5c0.1-0.2,0.1-0.4,0.2-0.6
			c0.1-0.5,0.3-0.9,0.5-1.4c0.2-0.5,0.5-0.9,0.8-1.3c0.1-0.2,0.2-0.6,0.5-1.1c0.2-0.5,0.6-1.3,1.2-2.4c0.5-0.8,0.8-1.5,1.1-1.9
			c0.3-0.5,0.5-0.8,0.7-1.1c-0.3-0.5-0.7-1-1.2-1.5c-0.4-0.8-0.8-1.7-1.1-2.4c-0.3-0.8-0.6-1.5-0.7-2.1c0-0.4-0.1-0.8-0.2-1.1
			c-0.1-0.3-0.1-0.6-0.2-1c-0.1-0.4-0.2-0.7-0.3-1.1c-0.1-0.4-0.1-0.8-0.1-1.2c-0.2-0.2-0.3-0.5-0.3-0.7l0.1-0.5
			c0.1-0.2,0.1-0.5,0.1-0.9c-0.1-0.4-0.2-0.8-0.3-1.2c-0.1-0.3-0.1-0.7-0.2-1.1c-0.1-0.4-0.1-0.8-0.1-1.2c0-0.4,0.1-0.8,0.3-1.1
			c0.2-0.4,0.5-0.7,0.9-0.9l0.9-0.1c0.3,0.2,0.6,0.3,0.9,0.5c0.3,0.2,0.6,0.3,0.8,0.5c0.4,0.2,0.7,0.3,1.1,0.5
			c0.3,0.2,0.7,0.4,1.1,0.7l0.4,0.7l0.7,0.6v0.6c0,0.1,0.1,0.3,0.1,0.6c0,0.4,0.1,0.7,0.2,0.8l0.2,0.6c0,0.5,0.1,0.9,0.2,1.3
			c0.1,0.4,0.2,0.8,0.3,1.2c0.1,0.4,0.2,0.8,0.3,1.2s0.1,0.8,0.1,1.3c0.2-0.1,0.4-0.2,0.5-0.4c0.1-0.1,0.1-0.1,0.2-0.2
			c0.1,0,0.1-0.1,0.2-0.2l3-4.1l-0.1-0.5l1.1-1c0.3-0.3,0.5-0.5,0.8-0.8c0.3-0.2,0.5-0.5,0.6-0.8l0.6-0.4c1.1-1.7,2.6-2.7,4.6-3.1
			l0.7-0.1l0.2,0.7c0.1,0.4,0.4,0.7,0.8,1c0.4,0.3,0.9,0.6,1.3,0.9l0.5,0.3c0.2,0.3,0.3,0.6,0.3,0.8c0,0.2,0,0.3-0.1,0.5l0.2,0.5
			c-0.3,0.8-0.6,1.4-1,1.8c-0.4,0.4-0.8,0.7-1.1,1c-0.3,0.3-0.6,0.5-0.8,0.7c-0.3,0.2-0.4,0.5-0.6,0.8l-0.4,0.4
			c-0.7,0.4-1.2,0.9-1.4,1.6l-0.2,0.6h-0.6c0,0-0.1,0.1-0.2,0.2c-0.1,0.1-0.3,0.4-0.5,0.9c-0.2,0.3-0.4,0.6-0.5,0.7
			s-0.2,0.2-0.3,0.3c0,0.1-0.1,0.3-0.1,0.4c-0.1,0.1-0.1,0.3-0.2,0.4c-0.4,0.4-0.7,0.8-0.8,1c-0.1,0.2-0.2,0.5-0.4,0.7
			c-0.1,0.3-0.3,0.5-0.4,0.8c-0.1,0.3-0.3,0.5-0.6,0.8L259.1,81.7z"/>
		<path d="M294.6,66.4c0,0.2,0,0.4,0,0.5c0,0.1,0,0.2-0.1,0.3c0,0.1,0,0.2,0,0.3c0,0.1,0,0.3,0.1,0.5c-0.7,1.2-1.5,1.9-2.5,2.4
			c-0.9,0.4-1.9,0.7-3,0.9c-1.1,0.2-2.2,0.4-3.3,0.6c-1.1,0.2-2.3,0.6-3.4,1.3c-0.4-0.2-0.8-0.2-1.2,0c-0.4,0.2-0.9,0.2-1.5,0.2
			c-0.2,0.2-0.5,0.3-0.8,0.4c-0.3,0.1-0.6,0.2-0.9,0.3c0.1,0.3,0.2,0.6,0.2,0.9c0,0.3,0,0.6,0.1,0.8c1.2,0.1,2.5,0.1,3.9-0.1
			c1.4-0.1,2.9-0.2,4.2-0.3c0,0.2,0,0.3-0.1,0.3c-0.1,0.1-0.1,0.1-0.1,0.3c0.2,0.2,0.5,0.4,0.7,0.6c0.2,0.3,0.5,0.5,0.7,0.7
			c0.2,0.2,0.5,0.4,0.7,0.6s0.5,0.2,0.9,0.2c0.1,0.3,0.2,0.6,0.3,0.9c0.1,0.3,0,0.7-0.1,1c-0.5,0.4-1.1,0.8-1.6,1.1
			c-0.5,0.4-1.1,0.7-1.7,1c-0.6,0.3-1.2,0.6-1.9,0.7c-0.7,0.2-1.4,0.3-2.2,0.2c-0.2,0-0.3,0-0.4,0c-0.1,0-0.2-0.1-0.3-0.2
			c-0.3,0.2-0.7,0.2-1.1,0.2c-0.5-0.1-0.9,0-1.1,0.2c-0.4-0.2-0.8-0.2-1.3-0.2c-0.5,0-1,0-1.4-0.2c-0.5,0.7-1,1.5-1.5,2.3
			c-0.4,0.8-0.8,1.7-1.2,2.6c1.2,0.2,2.1,0.2,2.9,0.2c0.8,0,1.5-0.1,2.2-0.2c0.7-0.1,1.4-0.2,2.1-0.3c0.7-0.1,1.6-0.1,2.7-0.1
			c0.7-0.4,1.5-0.6,2.4-0.7c0.9-0.1,1.8-0.3,2.6-0.6c0.3,0.1,0.5,0.3,0.7,0.5s0.4,0.5,0.6,0.7c0.2,0.2,0.4,0.4,0.6,0.6
			c0.2,0.2,0.5,0.2,0.8,0.2c0.1,0.1,0.2,0.3,0.3,0.5c0.1,0.2,0.1,0.4,0.1,0.5c0,0.2,0.1,0.3,0.2,0.4c0.1,0.1,0.2,0.2,0.4,0.1
			c-0.5,1.1-1.1,2-1.8,2.6c-0.7,0.6-1.4,1-2.3,1.3c-0.8,0.3-1.8,0.5-2.8,0.7c-1,0.2-2.2,0.4-3.4,0.6c-0.3,0.1-0.6,0.1-0.8,0
			c-0.2-0.1-0.4-0.1-0.7-0.1c-0.8,0.2-1.7,0.3-2.8,0.5c-1.1,0.1-2.2,0.2-3.3,0.2c-1.1,0-2.2-0.2-3.2-0.4s-1.8-0.7-2.5-1.3
			c-0.3-0.2-0.4-0.5-0.5-0.8c-0.1-0.3-0.3-0.6-0.7-0.7c0-0.4-0.1-0.9-0.2-1.5c-0.1-0.5-0.2-1.1-0.3-1.7c-0.1-0.6-0.2-1.2-0.2-1.8
			c-0.1-0.6,0-1.1,0.1-1.6c0.1-0.5,0.3-1,0.6-1.4c0.3-0.4,0.4-0.8,0.3-1.3c0.2,0,0.3-0.1,0.3-0.3c0-0.2,0.2-0.2,0.4-0.2
			c0.2-0.6,0.4-1.2,0.7-1.7c0.2-0.5,0.5-1.1,0.7-1.6s0.5-1,0.8-1.5c0.3-0.5,0.5-1.1,0.7-1.8c-0.5-0.4-0.8-0.9-1-1.4
			c-0.2-0.5-0.4-1-0.5-1.6c-0.1-0.5-0.2-1.1-0.3-1.6c-0.1-0.6-0.2-1.1-0.4-1.7c0.3-0.5,0.8-0.9,1.2-1.2c0.5-0.3,1-0.6,1.6-0.8
			c0.6-0.2,1.2-0.4,1.9-0.5c0.7-0.1,1.4-0.3,2.1-0.5c1.4-0.4,2.6-0.8,3.6-1c1.1-0.2,2.1-0.4,3.1-0.6c1-0.2,2.1-0.3,3.2-0.4
			c1.1-0.1,2.4-0.3,3.8-0.6c0.3,0.3,0.6,0.5,0.9,0.5c0.1-0.3,0.3-0.4,0.5-0.3c0.2,0.1,0.3,0,0.2-0.3c0.3,0.6,0.8,1.1,1.3,1.4
			C293.4,65.8,294,66.1,294.6,66.4z"/>
		<path d="M296.8,72.1c0.2-0.7,0.6-1.3,1.1-1.8s1.1-0.9,1.7-1.3s1.3-0.7,2-0.9c0.7-0.2,1.3-0.4,1.9-0.6c1.4-0.6,2.8-1.1,4.3-1.7
			c1.5-0.5,3.1-1,4.7-1.4s3.3-0.7,5-0.8c1.7-0.1,3.5,0.1,5.3,0.6c0.1,0.3,0.3,0.7,0.5,1s0.4,0.6,0.6,0.9s0.4,0.6,0.6,0.9
			c0.2,0.3,0.3,0.6,0.3,0.9c0.3,0.3,0.6,0.6,0.8,1s0.2,0.8,0.1,1.4c-0.3,0.3-0.7,0.5-1,0.7c-0.3,0.2-0.7,0.4-1,0.6
			c-1.3-0.3-2.5-0.4-3.8-0.3s-2.4,0.2-3.5,0.3c-0.3-0.3-0.7-0.5-1.1-0.5s-0.9,0.1-1.3,0.2c-0.5,0.1-0.9,0.3-1.4,0.4
			c-0.5,0.1-0.9,0.2-1.3,0.1c-0.3,0.3-0.8,0.4-1.2,0.5c-0.5,0.1-1,0.2-1.6,0.2c0,0.2,0,0.3,0.1,0.3s0.1,0.2,0.1,0.3
			c0.2,0.2,0.5,0.4,0.8,0.5s0.7,0.2,1,0.3s0.7,0.2,0.9,0.4s0.5,0.4,0.6,0.7c0.5,0,0.9,0.1,1.3,0.4c0.4,0.2,0.7,0.5,0.9,0.9
			c0.2,0.3,0.4,0.7,0.5,1.1c0.1,0.4,0.2,0.7,0.2,1c0.1,0.3,0.2,0.4,0.4,0.4c0.1,0,0.3,0,0.5,0.2c0.1,0.4,0.4,0.9,0.8,1.3
			s0.7,1,1,1.5c0.1,0.8,0.1,1.6,0.2,2.3s-0.1,1.3-0.4,2c-0.5,1.3-1.2,2.4-2.1,3.4c-0.9,1-1.9,1.9-3,2.6s-2.3,1.4-3.6,2
			c-1.3,0.5-2.5,1-3.8,1.4c-0.1,0-0.3,0-0.4,0c-0.1,0-0.2-0.1-0.1-0.3c-0.3,0.2-0.6,0.4-0.9,0.5c-0.3,0.1-0.7,0.1-1,0.1
			c-0.4,0-0.8,0-1.1-0.1c-0.4,0-0.8,0-1.1,0.1c-0.2-0.2-0.4-0.5-0.6-0.7s-0.3-0.5-0.4-0.8c-0.2,0-0.2-0.1-0.2-0.3
			c0-0.2,0-0.3-0.2-0.3c0.2-0.3,0.3-0.5,0.3-0.6s-0.1-0.1-0.2-0.1c-0.1,0-0.2-0.1-0.2-0.1s-0.1-0.1-0.1-0.2c0.1-0.3,0.2-0.6,0.2-0.9
			s-0.1-0.7-0.1-1.1c0-0.4,0-0.7,0.1-1.1c0.1-0.3,0.3-0.6,0.7-0.8c1.2,0.1,2.2,0.1,3.3-0.1c1-0.2,2-0.5,2.9-0.9s1.8-0.8,2.6-1.3
			c0.8-0.5,1.7-0.9,2.5-1.3c0.1-0.3,0.2-0.6,0.4-0.8s0.4-0.4,0.6-0.6c0.2-0.2,0.4-0.4,0.6-0.6s0.3-0.5,0.4-0.8c0-0.2,0-0.4-0.2-0.4
			s-0.2-0.2-0.2-0.4l-0.6-0.2c-0.6-0.4-1.4-0.7-2.2-0.9s-1.5-0.5-2.1-0.8c-0.4,0.2-0.7,0.3-1,0.2s-0.7-0.2-1.2-0.3
			c-1.2-0.1-2.3-0.2-3.3-0.4c-1.1-0.2-2.1-0.5-3.1-0.9c-0.1-0.2-0.2-0.3-0.3-0.5c-0.1-0.1-0.3-0.2-0.6-0.1c-0.2-0.3-0.4-0.5-0.6-0.8
			s-0.4-0.5-0.6-0.8c0.1-0.4,0.1-0.8,0.2-1c0-0.3-0.1-0.6-0.3-0.8c0.1-0.4,0.2-0.8,0.3-1.1C296.9,72.9,296.9,72.6,296.8,72.1z"/>
	</g>
</g>
</svg>
