<svg xmlns="http://www.w3.org/2000/svg" width="260" height="82.772" viewBox="0 0 260 82.772">
  <g id="Logo" transform="translate(-65 -29.228)">
    <ellipse id="Elipse_1" data-name="Elipse 1" cx="32.385" cy="33.272" rx="32.385" ry="33.272" transform="translate(65 29.228)" fill="#d7df23" opacity="0.75"/>
    <g id="Capa_2" data-name="Capa 2" transform="translate(210.445 47.037)">
      <g id="Layer_1" data-name="Layer 1" transform="translate(0 0)">
        <path id="Trazado_1" data-name="Trazado 1" d="M58.465,80.508,41.387,63.4a2.55,2.55,0,0,0-1.549-.637H29.174a.893.893,0,0,1-.586-.121H22.6q0,6.311-.032,12.628v7.12a1.371,1.371,0,0,0,1.364,1.371H57.12a1.912,1.912,0,0,0,1.345-3.251ZM44.23,77.378H29.18c-.408,0-.848.121-.841-.586l.108-6.872a1.364,1.364,0,0,1,1.364-1.345h8.223a2,2,0,0,1,1.275.5l5.916,5.986a1.358,1.358,0,0,1-.994,2.32Z" transform="translate(-8.183 -22.731)" fill="#d7df23"/>
        <path id="Trazado_2" data-name="Trazado 2" d="M0,1.924V35.1a1.364,1.364,0,0,0,1.371,1.364H21.1V30.45a.95.95,0,0,1-.121-.586q.057-5.335.057-10.664A2.55,2.55,0,0,0,20.4,17.65L3.245.573A1.912,1.912,0,0,0,0,1.924Zm8.7,11.92,5.96,5.928a1.963,1.963,0,0,1,.491,1.275V29.27a1.364,1.364,0,0,1-1.307,1.339l-6.872.108c-.714,0-.593-.433-.593-.841V14.807a1.364,1.364,0,0,1,2.32-.969Z" transform="translate(0 -0.032)" fill="#f8d122"/>
      </g>
    </g>
    <text id="Bowlyes" transform="translate(95 95)" font-size="52" font-family="PermanentMarker-Regular, Permanent Marker" letter-spacing="0.05em"><tspan x="0" y="0">Bowlyes</tspan></text>
  </g>
</svg>
